<?xml version="1.0" standalone="no"?>
<!DOCTYPE svg PUBLIC "-//W3C//DTD SVG 20010904//EN"
 "http://www.w3.org/TR/2001/REC-SVG-20010904/DTD/svg10.dtd">
<svg version="1.0" xmlns="http://www.w3.org/2000/svg"
 width="595.000000pt" height="595.000000pt" viewBox="0 0 595.000000 595.000000"
 preserveAspectRatio="xMidYMid meet">
<metadata>
Created by potrace 1.14, written by Peter Selinger 2001-2017
</metadata>
<g transform="translate(0.000000,595.000000) scale(0.100000,-0.100000)"
fill="#000000" stroke="none">
<path d="M2580 5927 c-208 -19 -290 -38 -524 -121 -71 -25 -131 -44 -133 -42
-4 4 -320 -154 -370 -185 -18 -11 -37 -18 -43 -14 -20 13 -206 -117 -195 -135
3 -5 1 -11 -5 -15 -5 -3 -10 -2 -10 4 0 6 -7 8 -16 4 -8 -3 -13 -11 -10 -19 6
-17 -61 -77 -77 -68 -7 4 -9 3 -4 -1 4 -5 0 -17 -10 -27 -17 -19 -39 -25 -27
-7 4 8 0 7 -15 -1 -12 -6 -21 -16 -20 -23 3 -24 -1 -37 -12 -37 -5 0 -7 5 -4
10 11 18 -25 10 -45 -10 -11 -11 -25 -20 -30 -20 -5 0 -10 -4 -10 -9 0 -4 -16
-26 -35 -47 -19 -21 -41 -47 -50 -57 -9 -10 -14 -24 -12 -30 6 -18 -12 -49
-25 -41 -7 4 -8 3 -4 -4 11 -18 -4 -37 -16 -21 -7 10 -8 8 -3 -7 3 -14 -1 -26
-12 -35 -15 -13 -16 -12 -9 6 7 18 6 18 -13 -2 -26 -27 -26 -34 -3 -26 15 6
15 5 4 -10 -8 -8 -20 -13 -28 -10 -8 3 -14 0 -14 -6 0 -6 5 -11 11 -11 5 0 7
-5 4 -10 -4 -6 -11 -7 -17 -4 -6 4 -9 1 -6 -7 2 -7 -20 -47 -50 -88 -30 -42
-59 -86 -65 -98 -6 -13 -14 -23 -19 -23 -4 0 -8 -5 -8 -11 0 -7 -22 -55 -48
-108 -27 -53 -59 -123 -72 -156 -12 -33 -31 -82 -42 -110 -22 -59 -52 -159
-79 -270 -33 -134 -38 -148 -33 -85 l5 55 -15 -40 c-18 -46 -20 -82 -6 -87 6
-2 7 -19 3 -43 -7 -40 -7 -40 -13 -10 -4 17 -7 -9 -7 -60 -1 -49 -6 -142 -13
-205 -16 -160 -23 -399 -11 -413 5 -7 12 -39 16 -72 20 -193 40 -296 110 -576
12 -50 39 -127 64 -184 5 -11 16 -36 25 -57 9 -20 16 -39 16 -43 0 -11 105
-230 144 -300 31 -55 243 -320 298 -372 7 -7 43 -40 81 -74 37 -34 67 -68 67
-75 0 -8 16 -24 35 -36 19 -13 37 -31 40 -40 4 -9 31 -29 60 -44 30 -14 53
-30 50 -34 -3 -5 4 -12 16 -15 28 -9 89 -51 83 -58 -5 -5 37 -18 46 -14 3 1
18 -10 34 -26 15 -15 31 -25 36 -22 4 3 11 -2 14 -11 3 -8 10 -12 16 -9 6 4 7
-1 3 -11 -3 -10 -2 -15 3 -12 5 3 17 -2 27 -12 17 -17 17 -17 -8 -17 -14 0
-25 3 -25 8 0 5 -5 9 -11 9 -5 0 -8 -4 -4 -9 3 -5 -8 -3 -25 5 -16 9 -30 18
-30 20 0 3 5 2 12 -2 7 -4 8 -3 4 4 -4 7 -2 12 5 12 7 0 9 3 6 6 -4 4 -13 2
-20 -4 -8 -7 -16 -9 -20 -6 -3 3 -14 1 -24 -6 -16 -10 -16 -10 5 -5 13 4 22 2
22 -5 0 -6 -4 -8 -10 -5 -5 3 -10 3 -10 -2 0 -4 -14 -9 -30 -10 -18 -1 -28 2
-25 8 4 5 11 6 17 3 7 -4 8 -2 4 5 -6 8 -12 9 -20 2 -7 -6 -17 -7 -21 -3 -5 4
-5 2 -1 -5 3 -6 2 -14 -4 -18 -5 -3 -10 -2 -10 3 0 13 -33 10 -42 -3 -5 -6 -8
-5 -8 4 0 11 -3 11 -15 1 -11 -9 -15 -9 -15 -1 0 9 -5 9 -22 0 -18 -9 -20 -9
-15 4 5 13 2 13 -21 1 -16 -8 -28 -10 -30 -4 -2 6 -11 6 -24 -1 -16 -8 -19 -8
-13 1 5 9 2 10 -11 3 -23 -10 -55 -10 -71 0 -6 4 -14 3 -18 -3 -3 -5 -11 -10
-16 -10 -6 0 -7 5 -3 11 5 8 1 8 -14 0 -13 -7 -23 -7 -27 -2 -3 5 -18 7 -33 4
-42 -8 -82 -10 -82 -4 0 3 -13 6 -30 6 -16 0 -30 -3 -30 -6 0 -3 -12 -6 -27
-6 -54 -1 -63 -3 -63 -19 0 -8 -4 -12 -10 -9 -5 3 -10 3 -11 -2 0 -4 -3 -17
-6 -28 -8 -32 -4 -115 7 -135 5 -10 24 -22 42 -27 18 -4 239 -6 492 -4 l458 3
54 -53 c70 -69 92 -89 102 -89 5 0 28 -13 53 -29 25 -16 65 -32 94 -35 28 -4
90 -23 138 -43 70 -28 97 -34 130 -30 24 3 35 2 27 -3 -9 -6 2 -11 33 -15 25
-4 50 -4 56 -1 5 4 14 -1 19 -11 8 -14 13 -15 25 -5 12 10 17 10 23 1 4 -8 3
-9 -4 -5 -7 4 -12 3 -12 -2 0 -6 12 -13 28 -18 39 -11 46 -11 54 1 5 6 8 3 8
-7 0 -10 7 -18 16 -18 8 0 12 4 9 10 -3 5 -1 10 4 10 6 0 11 -4 11 -10 0 -5 3
-9 8 -9 4 1 12 0 17 -1 6 -1 25 -1 44 0 19 1 31 -2 27 -8 -3 -5 9 -9 27 -9 18
1 38 -2 45 -7 7 -4 12 -3 12 2 0 5 21 6 48 2 26 -5 51 -6 55 -3 5 3 18 -3 29
-14 12 -10 18 -13 15 -6 -4 6 -3 14 3 18 5 3 10 1 10 -6 0 -8 5 -7 17 2 14 12
16 12 8 0 -6 -11 -4 -13 8 -8 9 3 19 2 22 -3 4 -6 13 -7 23 -1 9 4 25 7 35 6
9 -2 17 2 17 8 0 7 5 6 10 -3 8 -12 12 -12 18 -3 6 9 17 10 40 4 24 -7 31 -7
25 2 -4 7 1 6 10 -2 19 -15 103 -13 457 9 85 5 167 9 183 10 20 0 27 5 27 20
0 15 7 20 24 20 14 0 27 4 31 10 3 5 12 7 20 3 8 -3 15 -1 15 5 0 5 10 12 23
16 23 6 47 46 47 78 0 15 9 18 56 18 49 0 55 2 50 17 -4 10 -4 46 0 80 6 61 7
63 34 63 23 0 27 4 23 20 -6 22 -36 21 571 21 193 -1 199 0 225 22 25 22 33
37 34 64 0 8 6 9 18 2 27 -14 35 -11 13 6 -10 8 -14 15 -9 15 6 1 1 6 -10 11
-19 9 -18 9 2 5 13 -2 26 0 29 5 3 5 10 6 16 3 5 -4 3 4 -5 17 -8 13 -14 34
-13 46 2 12 -1 20 -6 17 -5 -4 -7 -12 -4 -19 2 -7 -2 -16 -10 -19 -7 -3 -13
-2 -13 2 3 20 -2 33 -11 27 -5 -3 -10 2 -10 13 0 12 -7 19 -17 19 -78 0 -113
4 -108 13 3 6 1 10 -4 10 -6 0 -11 -5 -11 -10 0 -6 -21 -9 -50 -7 -29 1 -50
-2 -51 -8 0 -5 -4 -1 -8 10 -8 19 -8 19 -16 -4 -4 -14 -10 -19 -14 -12 -10 15
-90 21 -85 6 3 -7 -2 -12 -10 -12 -8 0 -13 4 -10 9 3 4 1 8 -5 8 -5 0 -12 -6
-14 -12 -4 -10 -8 -9 -16 2 -6 9 -11 10 -11 3 0 -12 -17 -12 -35 -1 -6 4 -17
3 -25 -3 -19 -11 -43 -12 -35 0 3 5 1 12 -4 15 -5 4 -13 1 -17 -5 -5 -8 -3 -9
7 -4 12 7 12 6 0 -6 -10 -11 -15 -11 -18 -1 -3 6 -11 12 -19 12 -9 0 -12 -4
-9 -10 3 -5 1 -10 -4 -10 -6 0 -11 5 -11 10 0 6 -7 10 -15 10 -8 0 -15 -6 -15
-12 0 -10 -3 -9 -9 1 -6 9 -20 12 -40 9 -17 -2 -31 -1 -31 3 0 5 -7 5 -17 2
-11 -4 -14 -3 -9 6 4 6 16 9 26 6 21 -7 36 10 19 21 -8 4 -9 3 -5 -4 4 -7 3
-12 -3 -12 -5 0 -12 4 -15 9 -8 12 23 23 37 14 7 -4 6 1 -2 10 -12 15 -12 17
1 12 8 -3 21 2 29 12 13 17 13 17 -6 3 -20 -15 -20 -14 -1 8 20 23 32 30 21
12 -10 -16 11 -12 25 5 7 8 16 12 21 9 5 -3 9 0 9 6 0 7 7 10 15 7 8 -4 17 -1
21 5 5 7 2 8 -7 3 -12 -8 -12 -6 0 9 11 13 16 14 22 4 7 -10 9 -9 9 5 0 20 16
23 24 5 3 -7 4 -4 3 7 -1 11 4 20 11 21 25 3 27 5 12 15 -12 9 -10 10 8 6 18
-4 22 -2 18 10 -6 14 -4 14 11 2 9 -8 14 -9 10 -3 -3 6 1 20 9 30 9 10 13 14
10 7 -4 -6 -2 -15 4 -18 6 -4 10 -3 9 2 -5 27 1 35 16 23 13 -11 14 -10 9 4
-3 9 -1 16 6 16 6 0 9 4 6 9 -7 11 22 23 36 14 7 -3 8 -1 4 6 -8 13 51 81 71
81 12 0 17 13 14 32 0 4 5 5 12 2 7 -2 17 8 24 26 7 18 18 30 29 30 9 0 14 3
11 7 -4 3 1 12 11 20 9 8 11 12 5 8 -9 -4 -11 -1 -7 9 3 9 13 16 21 16 8 0 12
4 9 8 -5 9 31 46 48 49 5 1 14 10 20 21 23 39 65 98 85 119 12 12 21 26 21 31
0 5 7 16 16 23 9 8 30 42 47 76 16 35 33 63 38 63 5 0 9 6 9 14 0 8 3 16 8 18
4 2 20 30 36 63 16 33 33 66 39 74 6 7 12 19 13 27 1 8 16 36 32 62 16 27 33
64 37 83 4 19 18 58 31 87 106 241 164 587 164 981 0 124 -5 253 -11 286 -43
246 -80 401 -115 482 -8 17 -14 38 -14 47 0 9 -4 16 -10 16 -5 0 -10 5 -10 10
0 6 -23 58 -52 118 -28 59 -52 109 -53 112 0 3 -8 19 -17 35 -8 17 -13 36 -11
43 3 7 -7 22 -22 33 -14 12 -24 26 -22 32 2 7 -5 19 -16 28 -21 16 -15 45 6
32 6 -3 1 7 -11 24 -16 23 -19 33 -9 42 7 7 8 12 2 11 -21 -5 -29 1 -15 10 8
5 11 12 7 16 -9 10 -17 1 -22 -25 -2 -12 0 -19 6 -16 5 4 8 3 7 -2 -1 -4 3
-18 10 -30 9 -17 9 -23 1 -23 -6 0 -13 9 -16 20 -3 11 -9 18 -13 15 -4 -2 -6
11 -5 31 1 19 -3 38 -8 41 -5 3 -3 10 4 15 10 7 8 8 -8 3 -12 -3 -25 -1 -29 7
-12 18 -14 39 -4 33 17 -11 21 30 4 42 -17 12 -17 13 2 14 10 1 25 1 33 0 7
-2 10 3 6 9 -4 6 -13 9 -20 6 -18 -7 -13 27 5 36 12 5 12 7 -2 7 -10 1 -18 4
-18 8 0 3 8 15 18 26 9 11 12 18 6 14 -13 -7 -13 31 0 52 6 10 5 12 -2 7 -15
-9 -15 -1 -1 26 8 15 8 19 0 14 -7 -5 -11 6 -11 31 -1 66 -5 103 -11 103 -4 0
-5 14 -4 30 1 17 -1 30 -5 30 -4 0 -5 12 -2 26 3 19 1 25 -7 20 -7 -5 -11 2
-12 18 -2 45 -5 51 -17 49 -6 -2 -9 3 -6 11 3 8 0 17 -5 21 -6 3 -9 10 -6 15
6 10 -13 65 -21 57 -3 -3 0 -16 6 -29 l12 -23 -21 22 c-11 12 -21 26 -21 30 0
5 -13 23 -30 41 -16 18 -30 37 -30 43 0 5 -6 9 -12 9 -9 0 -8 4 2 10 15 10 13
12 -18 14 -24 1 -52 24 -52 43 0 8 -4 11 -10 8 -5 -3 -15 3 -22 15 -7 11 -18
20 -25 20 -6 0 -13 5 -15 11 -2 5 -10 11 -18 12 -20 4 -58 26 -44 27 5 0 15
-5 20 -10 7 -7 11 -7 11 3 0 7 -12 14 -26 15 -35 2 -132 54 -127 68 2 6 -2 11
-9 11 -7 0 -11 -7 -8 -16 2 -9 -3 -5 -11 9 -14 22 -15 23 -16 5 0 -16 -2 -17
-9 -6 -5 8 -16 11 -26 7 -9 -3 -26 1 -38 9 -13 9 -44 15 -77 15 -30 0 -50 4
-43 8 6 4 -30 6 -80 5 -51 0 -92 -2 -92 -3 0 -1 -10 -3 -22 -6 -14 -2 -23 1
-23 9 0 7 -3 8 -8 2 -12 -17 -72 -45 -72 -34 0 6 -7 3 -16 -5 -19 -19 -28 -21
-18 -3 6 10 4 10 -7 0 -7 -7 -19 -13 -27 -13 -7 0 -10 5 -7 13 4 6 -3 1 -15
-13 -12 -14 -19 -20 -16 -14 3 6 -1 11 -8 11 -8 0 -12 -6 -9 -14 4 -9 0 -11
-11 -7 -9 4 -18 0 -22 -9 -3 -10 -17 -14 -40 -12 -19 1 -34 -1 -34 -4 0 -4 -9
-7 -20 -8 -11 -1 -20 2 -20 6 0 5 -21 14 -46 20 -25 7 -65 20 -87 31 -23 10
-73 26 -112 35 -38 9 -86 20 -105 24 -19 5 -57 14 -85 21 -95 22 -592 41 -735
27z m2480 -1077 c0 -5 -5 -10 -11 -10 -5 0 -7 5 -4 10 3 6 8 10 11 10 2 0 4
-4 4 -10z m20 -95 c0 -8 -2 -15 -4 -15 -2 0 -6 7 -10 15 -3 8 -1 15 4 15 6 0
10 -7 10 -15z m-426 -3723 c2 -4 -5 -9 -17 -9 -17 -2 -19 0 -7 7 18 12 18 12
24 2z m370 -77 c3 -8 1 -15 -4 -15 -6 0 -10 7 -10 15 0 8 2 15 4 15 2 0 6 -7
10 -15z"/>
<path d="M4010 5890 c0 -5 5 -10 10 -10 6 0 10 5 10 10 0 6 -4 10 -10 10 -5 0
-10 -4 -10 -10z"/>
<path d="M4040 5870 c-9 -6 -10 -10 -3 -10 6 0 15 5 18 10 8 12 4 12 -15 0z"/>
<path d="M4570 5826 c0 -2 14 -14 30 -26 17 -12 30 -19 30 -16 0 2 -13 14 -30
26 -16 12 -30 19 -30 16z"/>
<path d="M3756 5791 c-4 -5 -2 -12 3 -15 5 -4 12 -2 15 3 4 5 2 12 -3 15 -5 4
-12 2 -15 -3z"/>
<path d="M335 5730 c3 -5 -1 -10 -11 -10 -41 0 -101 -27 -137 -62 -22 -21 -43
-38 -47 -38 -9 0 -36 -62 -32 -73 1 -5 -2 -6 -8 -2 -9 6 -14 -7 -11 -27 0 -5
-4 -8 -10 -8 -6 0 -9 -9 -6 -20 3 -11 1 -20 -4 -20 -16 0 -10 -74 8 -99 9 -14
12 -21 6 -18 -13 8 -11 -19 2 -30 4 -4 5 -2 0 6 -5 9 -4 12 3 7 6 -4 9 -13 6
-20 -6 -17 34 -96 50 -96 6 0 6 -4 -3 -9 -11 -7 -12 -14 0 -39 18 -41 55 -58
69 -32 14 27 12 34 -5 20 -8 -7 -15 -9 -15 -4 0 5 -5 2 -11 -6 -9 -13 -10 -13
-6 0 2 8 10 14 16 13 6 -2 11 2 11 8 0 5 -10 9 -22 7 -11 -2 -23 3 -26 11 -6
17 33 7 70 -19 38 -28 109 -43 177 -38 33 2 57 0 55 -4 -3 -4 -1 -8 4 -8 6 0
12 7 16 15 3 8 16 15 30 15 14 0 28 5 31 10 4 6 11 8 16 5 5 -4 9 -1 9 5 0 6
5 8 10 5 6 -4 9 -1 8 7 -2 7 2 12 8 11 7 -1 20 8 30 20 13 15 14 18 4 12 -9
-6 -8 -3 2 7 10 9 18 21 18 28 0 6 5 8 10 5 6 -3 10 1 10 9 0 9 8 16 18 16 14
0 15 2 2 10 -10 6 -11 10 -2 10 6 0 11 3 10 8 -1 4 1 22 5 40 4 22 11 31 19
27 7 -4 4 1 -7 10 -17 14 -18 17 -5 25 10 7 11 13 5 18 -6 4 -11 14 -11 22 0
51 -16 112 -34 130 -18 18 -19 24 -9 38 11 14 11 15 -1 5 -16 -14 -34 -18 -26
-5 2 4 -4 14 -16 21 -16 10 -19 10 -13 -1 4 -7 -3 -2 -15 12 -12 14 -19 18
-15 10 4 -8 -1 -6 -10 5 -9 11 -19 19 -23 18 -12 -4 -46 9 -74 28 -28 20 -135
28 -123 9z m-245 -274 c0 -3 -4 -8 -10 -11 -5 -3 -10 -1 -10 4 0 6 5 11 10 11
6 0 10 -2 10 -4z m0 -40 c0 -3 -4 -8 -10 -11 -5 -3 -10 -1 -10 4 0 6 5 11 10
11 6 0 10 -2 10 -4z m28 -141 c-3 -3 -9 2 -12 12 -6 14 -5 15 5 6 7 -7 10 -15
7 -18z"/>
<path d="M4820 5645 c0 -2 6 -8 13 -14 10 -8 14 -7 14 2 0 8 -6 14 -14 14 -7
0 -13 -1 -13 -2z"/>
<path d="M5012 5420 c15 -23 18 -24 38 -9 13 9 12 10 -3 5 -11 -3 -20 0 -23 9
-4 8 -10 15 -15 15 -5 0 -4 -9 3 -20z"/>
<path d="M5050 5392 c0 -5 7 -9 15 -9 8 0 12 4 9 9 -3 4 -9 8 -15 8 -5 0 -9
-4 -9 -8z"/>
<path d="M5095 5371 c6 -10 2 -12 -16 -6 -27 8 -24 3 8 -14 17 -9 21 -8 19 4
-1 8 -6 18 -11 22 -4 4 -5 2 0 -6z"/>
<path d="M5064 5320 c0 -13 4 -16 10 -10 7 7 7 13 0 20 -6 6 -10 3 -10 -10z"/>
<path d="M696 5317 c3 -10 9 -15 12 -12 3 3 0 11 -7 18 -10 9 -11 8 -5 -6z"/>
<path d="M5073 5275 c0 -8 4 -12 9 -9 5 3 6 10 3 15 -9 13 -12 11 -12 -6z"/>
<path d="M5155 5191 c-3 -5 -2 -12 3 -15 5 -3 9 1 9 9 0 17 -3 19 -12 6z"/>
<path d="M5080 5149 c0 -5 5 -7 10 -4 6 3 10 8 10 11 0 2 -4 4 -10 4 -5 0 -10
-5 -10 -11z"/>
<path d="M229 5127 c5 -5 21 -11 36 -12 21 -3 24 -1 14 11 -6 7 -22 13 -35 12
-14 -2 -20 -6 -15 -11z"/>
<path d="M326 5112 c-3 -5 1 -9 9 -9 8 0 12 4 9 9 -3 4 -7 8 -9 8 -2 0 -6 -4
-9 -8z"/>
<path d="M365 5110 c-3 -5 1 -10 10 -10 9 0 13 5 10 10 -3 6 -8 10 -10 10 -2
0 -7 -4 -10 -10z"/>
<path d="M5110 5010 c0 -5 5 -10 11 -10 5 0 7 5 4 10 -3 6 -8 10 -11 10 -2 0
-4 -4 -4 -10z"/>
<path d="M5054 4809 c-3 -5 6 -8 20 -7 26 2 26 10 1 14 -8 1 -17 -2 -21 -7z"/>
<path d="M5149 4713 c-13 -16 -12 -17 4 -4 9 7 17 15 17 17 0 8 -8 3 -21 -13z"/>
<path d="M5180 4692 c0 -7 -7 -9 -17 -5 -15 6 -16 5 -3 -9 13 -14 16 -14 23
-1 5 8 6 17 3 20 -3 4 -6 1 -6 -5z"/>
<path d="M5148 4633 c7 -3 16 -2 19 1 4 3 -2 6 -13 5 -11 0 -14 -3 -6 -6z"/>
<path d="M5280 4444 c0 -8 5 -12 10 -9 6 3 10 10 10 16 0 5 -4 9 -10 9 -5 0
-10 -7 -10 -16z"/>
<path d="M5390 1730 c0 -5 5 -10 11 -10 5 0 7 5 4 10 -3 6 -8 10 -11 10 -2 0
-4 -4 -4 -10z"/>
<path d="M323 1664 c-12 -13 -19 -24 -17 -24 3 0 -4 -12 -15 -26 -20 -26 -30
-94 -13 -94 5 0 15 -16 22 -35 9 -24 22 -38 39 -42 15 -3 31 -9 36 -13 6 -5
27 -8 48 -8 26 0 40 6 48 19 5 10 14 19 20 19 6 0 7 -4 4 -10 -3 -5 -2 -10 3
-10 5 0 9 12 9 28 -1 32 9 77 19 94 5 8 2 9 -9 5 -10 -3 -17 -2 -17 3 0 6 5
10 12 10 6 0 3 10 -8 22 -10 12 -14 19 -9 15 6 -3 11 3 11 13 0 15 -3 17 -15
7 -12 -9 -13 -9 -7 1 9 15 -14 40 -33 34 -8 -3 -11 -1 -8 4 3 5 -15 10 -39 12
-30 1 -44 -2 -44 -10 0 -10 -2 -10 -8 -1 -5 8 -14 4 -29 -13z"/>
<path d="M5384 1678 c3 -12 0 -18 -10 -18 -9 0 -12 5 -8 12 4 7 3 8 -5 4 -6
-4 -9 -12 -6 -17 4 -5 1 -9 -4 -9 -6 0 -11 -7 -11 -15 0 -8 -4 -15 -8 -15 -5
0 -9 -8 -10 -17 -5 -55 -1 -76 18 -103 21 -29 19 -57 -2 -44 -7 4 -8 2 -4 -4
7 -12 -5 -16 -34 -13 -8 1 -1 -7 15 -18 l30 -21 3 25 c2 14 7 23 12 20 5 -3
11 -1 15 4 3 6 12 8 20 4 23 -8 65 6 65 23 0 8 6 17 14 20 9 3 12 12 9 21 -4
10 -2 14 4 10 6 -4 9 10 8 39 -2 32 -9 50 -25 64 -13 11 -18 20 -12 20 6 0 14
-4 17 -10 3 -5 12 -10 18 -10 7 0 4 5 -5 11 -10 5 -18 16 -18 23 0 21 -25 26
-48 10 -19 -13 -22 -12 -32 3 -11 17 -11 17 -6 1z m70 -6 c3 -5 -1 -9 -9 -9
-8 0 -12 4 -9 9 3 4 7 8 9 8 2 0 6 -4 9 -8z"/>
<path d="M5290 1630 c0 -5 5 -10 10 -10 6 0 10 5 10 10 0 6 -4 10 -10 10 -5 0
-10 -4 -10 -10z"/>
<path d="M4865 1600 c-3 -5 -1 -11 5 -15 16 -10 12 -25 -7 -26 -13 0 -14 -2
-4 -6 13 -5 41 21 41 38 0 11 -29 19 -35 9z"/>
<path d="M5290 1591 c-6 -11 -6 -22 -1 -25 5 -3 11 5 13 19 6 30 2 32 -12 6z"/>
<path d="M535 1540 c-3 -5 -4 -10 0 -10 3 0 1 -8 -4 -18 -7 -13 -6 -19 2 -19
7 0 12 13 12 29 1 31 -1 33 -10 18z"/>
<path d="M5275 1470 c3 -5 8 -10 11 -10 2 0 4 5 4 10 0 6 -5 10 -11 10 -5 0
-7 -4 -4 -10z"/>
<path d="M4806 1455 c-14 -11 -16 -15 -5 -15 12 0 12 -2 -1 -10 -12 -8 -10 -9
7 -7 12 2 26 7 30 11 5 4 4 7 -2 6 -22 -5 -27 1 -15 15 16 19 11 19 -14 0z"/>
<path d="M5411 1436 c2 -2 15 -9 29 -15 24 -11 24 -11 6 3 -16 13 -49 24 -35
12z"/>
<path d="M5535 1420 c4 -6 11 -8 16 -5 14 9 11 15 -7 15 -8 0 -12 -5 -9 -10z"/>
<path d="M5405 1410 c3 -5 14 -10 23 -10 15 0 15 2 2 10 -20 13 -33 13 -25 0z"/>
<path d="M4715 1390 c-3 -5 -1 -10 4 -10 6 0 11 5 11 10 0 6 -2 10 -4 10 -3 0
-8 -4 -11 -10z"/>
<path d="M4750 1389 c0 -5 5 -7 10 -4 6 3 10 8 10 11 0 2 -4 4 -10 4 -5 0 -10
-5 -10 -11z"/>
<path d="M5456 1352 c-3 -5 1 -9 9 -9 8 0 12 4 9 9 -3 4 -7 8 -9 8 -2 0 -6 -4
-9 -8z"/>
<path d="M4755 1331 c-3 -5 -2 -12 3 -15 5 -3 9 1 9 9 0 17 -3 19 -12 6z"/>
<path d="M4750 1289 c0 -5 5 -7 10 -4 6 3 10 8 10 11 0 2 -4 4 -10 4 -5 0 -10
-5 -10 -11z"/>
<path d="M4793 1265 c0 -8 4 -12 9 -9 5 3 6 10 3 15 -9 13 -12 11 -12 -6z"/>
<path d="M1416 1112 c-2 -4 -1 -14 4 -22 7 -11 9 -9 7 8 -1 24 -3 26 -11 14z"/>
<path d="M1455 1090 c-3 -5 -1 -10 4 -10 6 0 11 5 11 10 0 6 -2 10 -4 10 -3 0
-8 -4 -11 -10z"/>
<path d="M330 1048 c0 -4 6 -8 13 -9 6 0 19 -2 28 -4 9 -1 23 2 30 7 11 8 10
9 -3 4 -10 -3 -20 -1 -23 4 -7 11 -45 9 -45 -2z"/>
<path d="M430 1037 c0 -8 -14 -12 -42 -12 -24 0 -49 -4 -57 -10 -11 -7 -13 -7
-8 1 4 7 0 15 -9 18 -10 4 -13 2 -8 -6 5 -7 0 -9 -14 -6 -12 3 -21 3 -20 -1 2
-19 -3 -31 -12 -26 -5 3 -10 1 -10 -4 0 -6 5 -11 11 -11 5 0 8 -4 4 -10 -3 -5
-12 -7 -19 -4 -20 8 -32 -17 -14 -30 15 -12 17 -53 3 -77 -7 -12 -6 -12 7 -1
13 10 18 10 24 1 4 -7 3 -9 -3 -6 -6 4 -13 1 -16 -7 -4 -10 0 -12 14 -9 11 3
19 0 19 -6 0 -7 5 -9 12 -5 7 5 8 3 3 -6 -5 -9 -2 -10 13 -6 11 4 23 2 26 -3
4 -5 15 -8 26 -6 14 3 17 -1 14 -13 -5 -15 -4 -15 8 -1 16 19 61 33 51 16 -3
-7 4 -3 16 7 22 20 22 20 16 0 -4 -10 2 -5 11 11 20 33 24 47 28 85 1 14 6 31
10 38 4 7 2 12 -4 12 -7 0 -9 7 -6 16 4 10 -3 18 -24 26 -27 9 -35 19 -31 41
0 4 -3 7 -9 7 -5 0 -10 -6 -10 -13z m-180 -87 c0 -5 -4 -10 -10 -10 -5 0 -10
5 -10 10 0 6 5 10 10 10 6 0 10 -4 10 -10z"/>
<path d="M5292 1042 c-7 -5 -28 -8 -47 -7 -19 1 -32 -2 -29 -7 3 -4 -2 -11
-10 -14 -9 -3 -14 -10 -11 -14 8 -13 -23 -33 -41 -26 -10 4 -14 13 -10 24 6
16 5 16 -7 0 -8 -10 -17 -15 -21 -11 -4 4 -4 0 -1 -9 4 -10 10 -17 13 -16 30
3 39 -4 34 -27 -2 -14 -8 -23 -12 -20 -4 3 -11 -2 -14 -11 -3 -8 -11 -12 -17
-8 -8 4 -9 3 -5 -5 6 -9 11 -9 21 -1 9 8 14 6 19 -5 4 -11 2 -14 -6 -9 -7 5
-9 2 -5 -9 3 -9 3 -18 -1 -20 -4 -2 -1 -2 6 -1 19 5 43 -7 36 -18 -4 -6 -10
-5 -15 3 -5 8 -9 9 -9 3 0 -6 8 -18 17 -25 13 -11 15 -11 9 -1 -6 9 -3 12 10
10 11 -2 22 -9 25 -17 7 -17 36 -23 45 -9 4 6 10 5 15 -3 6 -10 9 -10 9 -2 0
7 7 10 17 6 12 -5 14 -3 8 7 -6 10 -3 12 11 8 13 -3 27 5 43 23 14 16 30 25
40 22 12 -4 13 -3 3 4 -11 9 -8 35 8 63 2 3 -2 15 -8 27 -9 16 -9 24 0 29 7 4
8 3 4 -4 -4 -7 -2 -12 3 -12 22 0 10 30 -14 36 -14 3 -25 10 -25 16 0 5 -4 7
-9 3 -5 -3 -12 -1 -16 5 -3 5 -17 10 -31 10 -14 0 -22 4 -19 10 7 12 4 12 -13
2z m-107 -172 c3 -5 1 -10 -4 -10 -6 0 -11 5 -11 10 0 6 2 10 4 10 3 0 8 -4
11 -10z"/>
<path d="M5597 1003 c-26 -23 -32 -34 -23 -43 6 -6 7 -10 1 -8 -5 2 -10 1 -11
-2 0 -3 -7 -16 -14 -30 -13 -24 -12 -24 5 -10 10 8 16 10 13 5 -4 -6 -3 -17 2
-25 5 -9 4 -20 -3 -29 -10 -12 -9 -13 1 -7 9 5 19 1 28 -13 8 -12 22 -21 30
-21 8 0 13 -4 10 -8 -3 -5 1 -9 9 -9 8 0 12 4 9 9 -3 4 0 8 5 8 6 0 11 -5 11
-11 0 -5 6 -7 12 -3 17 11 48 13 42 3 -2 -4 1 -11 7 -15 8 -4 9 -3 5 4 -4 7
-3 12 3 12 6 0 8 7 5 15 -4 8 -1 15 6 15 7 0 10 8 8 18 -3 9 4 26 15 37 11 11
17 14 13 8 -4 -7 -3 -13 2 -13 6 0 12 7 16 15 3 8 1 15 -4 15 -6 0 -10 7 -10
16 0 14 2 15 18 3 15 -12 16 -12 5 2 -7 9 -11 18 -8 21 3 2 -2 5 -10 5 -8 0
-12 -4 -9 -9 3 -4 3 -8 0 -8 -3 0 -10 9 -16 20 -8 15 -7 19 2 17 7 -2 3 1 -10
7 -12 6 -20 16 -18 23 3 7 -1 10 -10 6 -7 -3 -22 -2 -31 2 -40 16 -72 10 -106
-22z"/>
<path d="M660 1020 c0 -5 5 -10 10 -10 6 0 10 5 10 10 0 6 -4 10 -10 10 -5 0
-10 -4 -10 -10z"/>
<path d="M5086 983 c-4 -9 -2 -21 3 -26 5 -5 7 -16 4 -23 -4 -10 1 -13 18 -10
13 3 27 5 31 5 4 1 5 8 2 16 -4 8 -10 13 -14 10 -5 -3 -11 -1 -15 5 -4 6 -11
7 -17 4 -6 -4 -8 1 -3 15 8 25 0 29 -9 4z m33 -36 c8 -10 7 -14 -2 -14 -8 0
-14 6 -14 14 0 7 1 13 2 13 2 0 8 -6 14 -13z"/>
<path d="M223 905 c0 -8 4 -12 9 -9 5 3 6 10 3 15 -9 13 -12 11 -12 -6z"/>
<path d="M5020 910 c-12 -7 -10 -9 7 -7 12 0 19 5 17 9 -6 10 -6 10 -24 -2z"/>
<path d="M511 876 c-9 -11 -9 -16 1 -22 7 -4 10 -4 6 1 -4 4 -3 14 3 22 6 7 9
13 6 13 -2 0 -10 -6 -16 -14z"/>
<path d="M210 869 c0 -5 5 -7 10 -4 6 3 10 8 10 11 0 2 -4 4 -10 4 -5 0 -10
-5 -10 -11z"/>
<path d="M4990 870 c0 -5 5 -10 11 -10 5 0 7 5 4 10 -3 6 -8 10 -11 10 -2 0
-4 -4 -4 -10z"/>
<path d="M5790 871 c0 -6 4 -13 10 -16 6 -3 7 1 4 9 -7 18 -14 21 -14 7z"/>
<path d="M5574 826 c1 -8 5 -18 8 -22 4 -3 5 1 4 10 -1 8 -5 18 -8 22 -4 3 -5
-1 -4 -10z"/>
<path d="M306 802 c-3 -6 -1 -14 5 -17 15 -10 25 3 12 16 -7 7 -13 7 -17 1z"/>
<path d="M2910 316 c0 -2 7 -9 15 -16 13 -11 14 -10 9 4 -5 14 -24 23 -24 12z"/>
<path d="M2778 269 c-16 -16 -28 -35 -28 -43 0 -7 -6 -19 -14 -25 -16 -13 -7
-81 15 -108 12 -15 12 -16 -1 -8 -13 8 -13 7 -1 -8 7 -9 20 -17 27 -17 8 0 14
-7 14 -16 0 -8 5 -12 10 -9 6 3 10 1 10 -5 0 -6 5 -8 13 -4 9 6 9 5 0 -7 -10
-12 -4 -14 42 -14 29 0 51 3 48 8 -4 6 20 11 40 8 4 0 7 6 7 14 0 9 7 18 16
22 8 3 13 12 10 19 -3 8 -1 14 4 14 5 0 6 7 3 17 -5 11 -3 14 6 8 10 -6 11 -3
1 15 -8 15 -8 20 -1 16 6 -4 11 0 11 9 0 9 -4 13 -10 10 -6 -4 -6 3 0 21 9 23
8 25 -6 20 -14 -5 -15 -4 -5 8 9 11 9 16 0 22 -8 4 -9 3 -5 -4 4 -7 3 -12 -2
-12 -5 0 -12 9 -15 20 -3 11 -12 20 -21 20 -9 0 -16 5 -16 10 0 6 -9 10 -21
10 -11 0 -18 3 -15 8 6 10 -55 9 -71 -1 -6 -4 -13 -3 -15 2 -1 6 -15 -3 -30
-20z"/>
</g>
</svg>
